<?xml version="1.0" encoding="UTF-8"?>
<svg width="193px" height="472px" viewBox="0 0 193 472" version="1.1" xmlns="http://www.w3.org/2000/svg" xmlns:xlink="http://www.w3.org/1999/xlink">
    <!-- Generator: Sketch 52.6 (67491) - http://www.bohemiancoding.com/sketch -->
    <title>Back View</title>
    <desc>Created with Sketch.</desc>
    <g id="Symbols" stroke="none" stroke-width="1" fill="none" fill-rule="evenodd">
        <g id="Back-View" transform="translate(-342.000000, -12.000000)" stroke="#FFFFFF" stroke-width="3">
            <g>
                <path d="M368.045194,13.4999941 C361.08087,13.9515116 355.418108,16.1590982 351.001019,20.1171213 C346.638782,24.0259934 344.124713,30.0330506 343.499995,38.2188365 L343.499817,457.964559 C343.48466,464.24302 345.98361,469.877734 351.059043,474.937725 C356.135664,479.9989 361.817179,482.500002 368.172852,482.500006 L509.222655,482.500006 C515.191957,482.500002 520.750555,479.99857 525.952815,474.926034 C531.137197,469.87093 533.627654,464.32684 533.500006,458.190918 L533.502965,38.2562826 C532.980978,29.9584298 530.472699,23.9504439 526.024074,20.139109 C521.499806,16.2629663 515.821547,14.0486502 508.942283,13.499994 L368.045194,13.4999941 Z M508.942283,13.499994 C508.922979,13.4984545 508.903667,13.4969281 508.884344,13.4954147 L509.001465,13.4999941 L508.942332,13.4999941 Z" id="Case-Outline-Copy"></path>
                <path d="M533.500006,51.4999941 L343.499748,51.4999941 L343.499748,444.500006 L533.500006,444.500006 L533.500006,51.4999941 Z" id="Case-Outline-Copy-2"></path>
                <path d="M375.500257,196.5 L361.5,196.5 L361.5,293.500012 L375.500257,293.500012 L375.500257,196.5 Z" id="Case-Outline-Copy-3"></path>
                <path d="M512.500257,196.5 L419.5,196.5 L419.5,293.500012 L512.500257,293.500012 L512.500257,196.5 Z" id="Case-Outline-Copy-4"></path>
                <path d="M455.500257,115.5 L419.5,115.5 L419.5,144.500012 L455.500257,144.500012 L455.500257,115.5 Z" id="Case-Outline-Copy-5"></path>
                <path d="M512.500257,307.5 L481.5,307.5 L481.5,414.500012 L512.500257,414.500012 L512.500257,307.5 Z" id="Case-Outline-Copy-6"></path>
                <path d="M468.500257,363.091158 C468.499336,346.068637 463.321764,332.771644 452.975663,323.095539 C445.795069,316.379948 438.733227,312.138302 431.611038,309.814569 C426.245457,308.063959 421.482568,307.5 415.373047,307.5 C402.190615,307.5 390.261631,311.777236 378.064376,324.057075 C368.340141,333.847152 362.817126,346.855062 361.500907,363.146409 C361.680872,376.65886 366.854494,388.569589 377.069192,398.947807 C387.281685,409.323784 400.019379,414.500012 415.373047,414.500012 C430.143493,414.500012 442.635585,409.32559 452.93539,398.943576 C463.24552,388.551153 468.417095,376.624316 468.500257,363.091158 Z M468.500257,363.091158 C468.500266,363.089642 468.500276,363.088127 468.500285,363.086612 L468.500257,363.095703 C468.500257,363.094188 468.500257,363.092673 468.500257,363.091158 Z" id="®"></path>
            </g>
        </g>
    </g>
</svg>