<?xml version="1.0" encoding="UTF-8"?>
<svg width="446px" height="472px" viewBox="0 0 446 472" version="1.1" xmlns="http://www.w3.org/2000/svg" xmlns:xlink="http://www.w3.org/1999/xlink">
    <!-- Generator: Sketch 52.6 (67491) - http://www.bohemiancoding.com/sketch -->
    <title>Mac_Pro_Illustration</title>
    <desc>Created with Sketch.</desc>
    <g id="Page-1" stroke="none" stroke-width="1" fill="none" fill-rule="evenodd">
        <path d="M1.49999981,45.5 L6.49493854,45.5 L6.49999143,46.99493 C7.16253622,243.013009 7.16253622,369.017219 6.499895,425.017748 L6.48235586,426.5 L1.49999981,426.5 L1.49999462,467.000006 C1.49999481,468.933003 3.06699834,470.500006 4.99999493,470.500006 L48.4856345,470.500001 C51.5771721,470.5 54.4249418,468.821454 55.9222239,466.116689 L63.9573971,451.601554 C66.8638862,446.351128 72.3919103,443.092773 78.3931311,443.092773 L369.043702,443.092773 C375.085223,443.092773 380.643665,446.394636 383.533574,451.700143 L391.3586,466.065901 C392.84734,468.799041 395.71078,470.5 398.823078,470.500001 L441.000006,470.500006 C442.933003,470.500006 444.500006,468.933002 444.500006,467.000006 L444.5,426.5 L439.5,426.5 L439.5,45.4965537 L444.5,45.5080283 L444.500006,4.9999938 C444.500005,3.06699717 442.933002,1.49999395 441.000005,1.49999415 L398.65393,1.49999942 C395.618259,1.49999973 392.813012,3.11894141 391.294236,5.74736639 L386.471238,14.0941464 C381.736231,22.2886486 372.990458,27.3359375 363.526306,27.3359375 L75.2761321,27.3359375 C71.1979043,27.3359375 67.4247151,25.1760228 65.3595745,21.6593287 L55.9851377,5.69575374 C54.4587296,3.09645841 51.669851,1.49999973 48.655509,1.49999944 L4.99999496,1.49999517 C3.06699763,1.49999436 1.49999442,3.0669979 1.49999462,4.99999449 L1.49999981,45.5 Z" id="Case-Outline" stroke="#FFFFFF" stroke-width="3"></path>
        <path d="M6.5,45.5 L6.5,426.5 L439.5,426.5 L439.5,45.5 L6.5,45.5 Z" id="Case-Panel" stroke="#FFFFFF" stroke-width="3"></path>
        <path d="M46,57.5 C33.0213084,57.5 22.5,68.0213084 22.5,81 L22.5,391 C22.5,403.978692 33.0213084,414.5 46,414.5 L400,414.5 C412.978692,414.5 423.5,403.978692 423.5,391 L423.5,81 C423.5,68.0213084 412.978692,57.5 400,57.5 L46,57.5 Z" id="Case-Internals" stroke="#FFFFFF" stroke-width="3"></path>
        <path d="M22.5,142.5 L241.5,142.5 L241.5,57.5 L46,57.5 C33.0213084,57.5 22.5,68.0213084 22.5,81 L22.5,142.5 Z" id="Optical-Drive" stroke="#FFFFFF" stroke-width="3" opacity="0.753231957"></path>
        <path d="M241.5,57.5 L241.5,142.5 L423.5,142.5 L423.5,81 C423.5,68.0213084 412.978692,57.5 400,57.5 L241.5,57.5 Z" id="Power-Supply" stroke="#FFFFFF" stroke-width="3" opacity="0.753231957"></path>
        <path d="M22.5,154.5 L22.5,391 C22.5,403.978692 33.0213084,414.5 46,414.5 L122.5,414.5 L122.5,154.5 L22.5,154.5 Z" id="Front-Fans" stroke="#FFFFFF" stroke-width="3"></path>
        <path d="M122.5,277.5 L122.5,414.5 L222.5,414.5 L222.5,277.5 L122.5,277.5 Z" id="CPU-Heatsinks" stroke="#FFFFFF" stroke-width="3"></path>
        <path d="M222.5,277.5 L222.5,414.5 L396.5,414.5 L396.5,277.5 L222.5,277.5 Z" id="RAM-Cage" stroke="#FFFFFF" stroke-width="3"></path>
        <path d="M246,304.5 C242.410149,304.5 239.5,307.410149 239.5,311 L239.5,339 C239.5,342.589851 242.410149,345.5 246,345.5 L374,345.5 C377.589851,345.5 380.5,342.589851 380.5,339 L380.5,311 C380.5,307.410149 377.589851,304.5 374,304.5 L246,304.5 Z" id="RAM-Block-A" stroke="#FFFFFF" stroke-width="3"></path>
        <path d="M246,362.5 C242.410149,362.5 239.5,365.410149 239.5,369 L239.5,397 C239.5,400.589851 242.410149,403.5 246,403.5 L374,403.5 C377.589851,403.5 380.5,400.589851 380.5,397 L380.5,369 C380.5,365.410149 377.589851,362.5 374,362.5 L246,362.5 Z" id="RAM-Block-B" stroke="#FFFFFF" stroke-width="3"></path>
        <path d="M396.5,291.5 L396.5,403.501657 L419.327762,403.526892 C420.660992,402.110019 421.626922,400.494794 422.234616,398.669192 C422.937039,396.559007 423.365135,394.213543 423.513062,391.718088 L423.500193,291.5 L396.5,291.5 Z" id="Rear-Exhaust-Fan" stroke="#FFFFFF" stroke-width="3"></path>
        <path d="M266.5,259.5 L266.5,277.478509 L373.436047,277.499704 L373.495073,259.5 L266.5,259.5 Z" id="PCIE-Slot-C" stroke="#FFFFFF" stroke-width="3"></path>
        <path d="M266.5,230.5 L266.5,248.478509 L373.436047,248.499704 L373.495073,230.5 L266.5,230.5 Z" id="PCIE-Slot-B" stroke="#FFFFFF" stroke-width="3"></path>
        <path d="M266.5,201.5 L266.5,219.478509 L373.436047,219.499704 L373.495073,201.5 L266.5,201.5 Z" id="PCIE-Slot-A" stroke="#FFFFFF" stroke-width="3"></path>
        <path d="M201.5,201.5 L201.5,248.5 L234.5,248.5 L234.5,201.5 L201.5,201.5 Z" id="Logic-Board-Heatsink" stroke="#FFFFFF" stroke-width="3"></path>
        <path d="M122.5,154.5 L22.5,154.5 L22.5,176 C22.5,179.589851 25.4101491,182.5 29,182.5 L116,182.5 C119.589851,182.5 122.5,179.589851 122.5,176 L122.5,154.5 Z" id="Drive-Bay-1" stroke="#FFFFFF" stroke-width="3"></path>
        <path d="M222.5,154.5 L122.5,154.5 L122.5,176 C122.5,179.589851 125.410149,182.5 129,182.5 L216,182.5 C219.589851,182.5 222.5,179.589851 222.5,176 L222.5,154.5 Z" id="Drive-Bay-2" stroke="#FFFFFF" stroke-width="3"></path>
        <path d="M322.5,154.5 L222.5,154.5 L222.5,176 C222.5,179.589851 225.410149,182.5 229,182.5 L316,182.5 C319.589851,182.5 322.5,179.589851 322.5,176 L322.5,154.5 Z" id="Drive-Bay-3" stroke="#FFFFFF" stroke-width="3"></path>
        <path d="M423.5,154.5 L322.5,154.5 L322.5,176 C322.5,179.589851 325.410149,182.5 329,182.5 L417,182.5 C420.589851,182.5 423.5,179.589851 423.5,176 L423.5,154.5 Z" id="Drive-Bay-4" stroke="#FFFFFF" stroke-width="3"></path>
        <path d="M22.5,142.5 L22.5,154.5 L423.5,154.5 L423.5,142.5 L22.5,142.5 Z" id="Drive-Bay-Lock" stroke="#FFFFFF" stroke-width="3"></path>
        <path d="M69,76.5 C65.4101491,76.5 62.5,79.4101491 62.5,83 L62.5,117 C62.5,120.589851 65.4101491,123.5 69,123.5 L93,123.5 C96.5898509,123.5 99.5,120.589851 99.5,117 L99.5,83 C99.5,79.4101491 96.5898509,76.5 93,76.5 L69,76.5 Z" id="Optical-Drive-Access-A" stroke="#FFFFFF" stroke-width="3"></path>
        <path d="M154,76.5 C150.410149,76.5 147.5,79.4101491 147.5,83 L147.5,117 C147.5,120.589851 150.410149,123.5 154,123.5 L178,123.5 C181.589851,123.5 184.5,120.589851 184.5,117 L184.5,83 C184.5,79.4101491 181.589851,76.5 178,76.5 L154,76.5 Z" id="Optical-Drive-Access-B" stroke="#FFFFFF" stroke-width="3"></path>
        <circle id="Case-Panel-Screw-1" stroke="#FFFFFF" stroke-width="3" cx="19" cy="58" r="3.5"></circle>
        <circle id="Case-Panel-Screw-2" stroke="#FFFFFF" stroke-width="3" cx="427" cy="58" r="3.5"></circle>
    </g>
</svg>