<?xml version="1.0" encoding="UTF-8"?>
<svg width="193px" height="115px" viewBox="0 0 193 115" version="1.1" xmlns="http://www.w3.org/2000/svg" xmlns:xlink="http://www.w3.org/1999/xlink">
    <!-- Generator: Sketch 52.6 (67491) - http://www.bohemiancoding.com/sketch -->
    <title>Ethernet Ports</title>
    <desc>Created with Sketch.</desc>
    <g id="Symbols" stroke="none" stroke-width="1" fill="none" fill-rule="evenodd">
        <g id="Ethernet-Ports" transform="translate(-17.000000, -549.000000)">
            <g>
                <g>
                    <path d="M208.500257,594.000099 L208.500257,594 C208.500257,586.544156 202.456101,580.5 195.000257,580.5 L31.9999883,580.499987 C24.5441442,580.499993 18.4999936,586.544155 18.5,593.999899 L18.5036706,648.484396 C18.503677,655.938972 24.545858,661.982597 32.0004994,661.984384 L195.000617,662.030681 C195.002235,662.030681 195.002235,662.030681 195.003854,662.030681 C202.459698,662.030681 208.503854,655.986525 208.503854,648.53078 L208.500257,594.000099 Z" id="Case-Outline-Copy" stroke="#FFFFFF" stroke-width="3"></path>
                    <path d="M46.5,628.36 L46.5,645.64" id="Line" stroke="#FFFFFF" stroke-width="3" fill="#FFFFFF" stroke-linecap="square"></path>
                    <path d="M52.5,628.36 L52.5,645.64" id="Line-Copy" stroke="#FFFFFF" stroke-width="3" fill="#FFFFFF" stroke-linecap="square"></path>
                    <path d="M58.5,628.36 L58.5,645.64" id="Line-Copy-3" stroke="#FFFFFF" stroke-width="3" fill="#FFFFFF" stroke-linecap="square"></path>
                    <path d="M64.5,628.36 L64.5,645.64" id="Line-Copy-2" stroke="#FFFFFF" stroke-width="3" fill="#FFFFFF" stroke-linecap="square"></path>
                    <path d="M70.5,628.36 L70.5,645.64" id="Line-Copy-7" stroke="#FFFFFF" stroke-width="3" fill="#FFFFFF" stroke-linecap="square"></path>
                    <path d="M76.5,628.36 L76.5,645.64" id="Line-Copy-6" stroke="#FFFFFF" stroke-width="3" fill="#FFFFFF" stroke-linecap="square"></path>
                    <path d="M82.5,628.36 L82.5,645.64" id="Line-Copy-5" stroke="#FFFFFF" stroke-width="3" fill="#FFFFFF" stroke-linecap="square"></path>
                    <path d="M88.5,628.36 L88.5,645.64" id="Line-Copy-4" stroke="#FFFFFF" stroke-width="3" fill="#FFFFFF" stroke-linecap="square"></path>
                    <path d="M100.500257,609.5 L84.0634766,609.5 L84.0634766,600.858398 L77.2104492,600.858398 L77.2104492,594.161133 L57.4101563,594.161133 L57.4101562,600.858398 L50.8759766,600.858398 L50.8759766,609.5 L34.5000866,609.5 L34.5000034,646.500012 L100.500257,646.500012 L100.500257,609.5 Z" id="Case-Outline-Copy-6" stroke="#FFFFFF" stroke-width="3"></path>
                    <path d="M138.5,628.36 L138.5,645.64" id="Line-Copy-15" stroke="#FFFFFF" stroke-width="3" fill="#FFFFFF" stroke-linecap="square"></path>
                    <path d="M144.5,628.36 L144.5,645.64" id="Line-Copy-14" stroke="#FFFFFF" stroke-width="3" fill="#FFFFFF" stroke-linecap="square"></path>
                    <path d="M150.5,628.36 L150.5,645.64" id="Line-Copy-13" stroke="#FFFFFF" stroke-width="3" fill="#FFFFFF" stroke-linecap="square"></path>
                    <path d="M156.5,628.36 L156.5,645.64" id="Line-Copy-12" stroke="#FFFFFF" stroke-width="3" fill="#FFFFFF" stroke-linecap="square"></path>
                    <path d="M162.5,628.36 L162.5,645.64" id="Line-Copy-11" stroke="#FFFFFF" stroke-width="3" fill="#FFFFFF" stroke-linecap="square"></path>
                    <path d="M168.5,628.36 L168.5,645.64" id="Line-Copy-10" stroke="#FFFFFF" stroke-width="3" fill="#FFFFFF" stroke-linecap="square"></path>
                    <path d="M174.5,628.36 L174.5,645.64" id="Line-Copy-9" stroke="#FFFFFF" stroke-width="3" fill="#FFFFFF" stroke-linecap="square"></path>
                    <path d="M180.5,628.36 L180.5,645.64" id="Line-Copy-8" stroke="#FFFFFF" stroke-width="3" fill="#FFFFFF" stroke-linecap="square"></path>
                    <path d="M192.500257,609.5 L176.063477,609.5 L176.063477,600.858398 L169.210449,600.858398 L169.210449,594.161133 L149.410156,594.161133 L149.410156,600.858398 L142.875977,600.858398 L142.875977,609.5 L126.500087,609.5 L126.500003,646.500012 L192.500257,646.500012 L192.500257,609.5 Z" id="Case-Outline-Copy-8" stroke="#FFFFFF" stroke-width="3"></path>
                    <path d="M72.5001127,558.743133 C72.499248,557.083111 72.0247104,555.865678 71.0845998,554.986454 C69.8281351,553.811364 68.8738061,553.5 67.5441209,553.5 C66.3179493,553.5 65.247885,553.883678 64.0733355,555.066172 C63.16689,555.978748 62.6410392,557.20124 62.5011414,558.796706 C62.5320169,560.020094 63.0032434,561.084858 63.9599688,562.056893 C64.9146128,563.026812 66.0790733,563.500012 67.5441209,563.500012 C68.9380447,563.500012 70.0760907,563.028618 71.044326,562.052662 C72.0228479,561.066336 72.4914499,559.98705 72.5001118,558.743134 Z M72.5001118,558.743134 C72.5001224,558.741619 72.5001322,558.740104 72.5001414,558.738588 L72.5001139,558.747679 C72.5001139,558.746163 72.5001135,558.744648 72.5001127,558.743133 Z" id="®" stroke="#FFFFFF" stroke-width="3" fill="#FFFFFF"></path>
                    <path d="M164.500113,558.743133 C164.499248,557.083111 164.02471,555.865678 163.0846,554.986454 C161.828135,553.811364 160.873806,553.5 159.544121,553.5 C158.317949,553.5 157.247885,553.883678 156.073336,555.066172 C155.16689,555.978748 154.641039,557.20124 154.501141,558.796706 C154.532017,560.020094 155.003243,561.084858 155.959969,562.056893 C156.914613,563.026812 158.079073,563.500012 159.544121,563.500012 C160.938045,563.500012 162.076091,563.028618 163.044326,562.052662 C164.022848,561.066336 164.49145,559.98705 164.500112,558.743134 Z M164.500112,558.743134 C164.500122,558.741619 164.500132,558.740104 164.500141,558.738588 L164.500114,558.747679 C164.500114,558.746163 164.500113,558.744648 164.500113,558.743133 Z" id="®-copy" stroke="#FFFFFF" stroke-width="3" fill="#FFFFFF"></path>
                    <path d="M108.000114,558.576213 C107.997042,559.082986 107.803098,559.530312 107.41828,559.918192 C107.033462,560.306072 106.56524,560.500012 106.013615,560.500012 C105.440872,560.500012 104.963612,560.306072 104.581834,559.918192 C104.200056,559.530312 104.006112,559.082986 104,558.576213 C104.048486,557.970293 104.254552,557.484283 104.618199,557.118184 C105.163668,556.569034 105.684913,556.5 106.013615,556.5 C106.342318,556.5 106.836446,556.537678 107.41828,557.08182 C107.806169,557.444581 108.000114,557.942712 108.000114,558.576213 Z" id="®-copy-2" fill="#FFFFFF"></path>
                    <path d="M115.000114,558.576213 C114.997042,559.082986 114.803098,559.530312 114.41828,559.918192 C114.033462,560.306072 113.56524,560.500012 113.013615,560.500012 C112.440872,560.500012 111.963612,560.306072 111.581834,559.918192 C111.200056,559.530312 111.006112,559.082986 111,558.576213 C111.048486,557.970293 111.254552,557.484283 111.618199,557.118184 C112.163668,556.569034 112.684913,556.5 113.013615,556.5 C113.342318,556.5 113.836446,556.537678 114.41828,557.08182 C114.806169,557.444581 115.000114,557.942712 115.000114,558.576213 Z" id="®-copy-4" fill="#FFFFFF"></path>
                    <path d="M122.000114,558.576213 C121.997042,559.082986 121.803098,559.530312 121.41828,559.918192 C121.033462,560.306072 120.56524,560.500012 120.013615,560.500012 C119.440872,560.500012 118.963612,560.306072 118.581834,559.918192 C118.200056,559.530312 118.006112,559.082986 118,558.576213 C118.048486,557.970293 118.254552,557.484283 118.618199,557.118184 C119.163668,556.569034 119.684913,556.5 120.013615,556.5 C120.342318,556.5 120.836446,556.537678 121.41828,557.08182 C121.806169,557.444581 122.000114,557.942712 122.000114,558.576213 Z" id="®-copy-3" fill="#FFFFFF"></path>
                    <path d="M130.5,565.5 L123.5,558.5" id="Line-2-Copy-3" stroke="#FFFFFF" stroke-width="3" stroke-linecap="square" transform="translate(127.000000, 562.000000) scale(-1, 1) translate(-127.000000, -562.000000) "></path>
                    <path d="M130.5,551.5 L123.5,558.5" id="Line-2-Copy-2" stroke="#FFFFFF" stroke-width="3" stroke-linecap="square" transform="translate(127.000000, 555.000000) scale(-1, 1) translate(-127.000000, -555.000000) "></path>
                    <path d="M102.5,565.5 L95.5,558.5" id="Line-2-Copy-5" stroke="#FFFFFF" stroke-width="3" stroke-linecap="square"></path>
                    <path d="M102.5,551.5 L95.5,558.5" id="Line-2-Copy-4" stroke="#FFFFFF" stroke-width="3" stroke-linecap="square"></path>
                </g>
            </g>
        </g>
    </g>
</svg>