<?xml version="1.0" encoding="UTF-8"?>
<svg width="193px" height="472px" viewBox="0 0 193 472" version="1.1" xmlns="http://www.w3.org/2000/svg" xmlns:xlink="http://www.w3.org/1999/xlink">
    <!-- Generator: Sketch 52.6 (67491) - http://www.bohemiancoding.com/sketch -->
    <title>Front View</title>
    <desc>Created with Sketch.</desc>
    <g id="Symbols" stroke="none" stroke-width="1" fill="none" fill-rule="evenodd">
        <g id="Front-View" transform="translate(-54.000000, -12.000000)" stroke="#FFFFFF" stroke-width="3">
            <g>
                <path d="M80.0451944,13.4999941 C73.0808699,13.9515116 67.4181083,16.1590982 63.0010195,20.1171213 C58.6387824,24.0259934 56.1247131,30.0330506 55.4999946,38.2188365 L55.4998168,457.964559 C55.48466,464.24302 57.9836104,469.877734 63.059043,474.937725 C68.1356637,479.9989 73.8171786,482.500002 80.1728516,482.500006 L221.222655,482.500006 C227.191957,482.500002 232.750555,479.99857 237.952815,474.926034 C243.137197,469.87093 245.627654,464.32684 245.500006,458.190918 L245.502965,38.2562826 C244.980978,29.9584298 242.472699,23.9504439 238.024074,20.139109 C233.499806,16.2629663 227.821547,14.0486502 220.942283,13.499994 L80.0451944,13.4999941 Z M220.942283,13.499994 C220.922979,13.4984545 220.903667,13.4969281 220.884344,13.4954147 L221.001465,13.4999941 L220.942332,13.4999941 Z" id="Case-Outline-Copy"></path>
                <path d="M245.500006,51.4999941 L55.4997482,51.4999941 L55.4997482,444.500006 L245.500006,444.500006 L245.500006,51.4999941 Z" id="Case-Outline-Copy-2"></path>
                <path d="M223.500257,78.5 L75.5,78.5 L75.5,91.5000117 L223.500257,91.5000117 L223.500257,78.5 Z" id="Case-Outline-Copy-3"></path>
                <path d="M223.500257,121.5 L75.5,121.5 L75.5,134.500012 L223.500257,134.500012 L223.500257,121.5 Z" id="Case-Outline-Copy-7"></path>
                <path d="M91.5002575,287.5 L74.5,287.5 L74.5,376.500012 L91.5002575,376.500012 L91.5002575,287.5 Z" id="Case-Outline-Copy-6"></path>
            </g>
        </g>
    </g>
</svg>